999
"DXF R12 Output" (www.mydxf.blogspot.com)
 0 
SECTION
 2 
HEADER
 9 
$ACADVER
 1 
AC1009
 9 
$EXTMIN
 10 
 0 
 20 
 0 
 9 
$EXTMAX
 10 
 8.5 
 20 
 11 
 0 
ENDSEC
 0 
SECTION
 2 
ENTITIES
0
LINE
8
Layer 1
10
3.000000
20
93.119200
11
-3.000000
21
87.119200
0
LINE
8
Layer 1
10
0.000000
20
95.119200
11
0.000000
21
85.119200
0
LINE
8
Layer 1
10
8.000000
20
86.119200
11
4.000000
21
82.119200
0
LINE
8
Layer 1
10
6.000000
20
88.119200
11
2.000000
21
84.119200
0
LINE
8
Layer 1
10
4.000000
20
90.119200
11
0.000000
21
86.119200
0
LINE
8
plate 1
10
62.156830
20
32.764818
11
61.511740
21
32.668221
0
LINE
8
plate 1
10
61.511740
20
32.668221
11
60.934575
21
32.394051
0
LINE
8
plate 1
10
60.934575
20
32.394051
11
60.460404
21
31.965741
0
LINE
8
plate 1
10
60.460404
20
31.965741
11
60.124295
21
31.406722
0
LINE
8
plate 1
10
60.124295
20
31.406722
11
59.966674
21
30.773770
0
LINE
8
plate 1
10
59.966674
20
30.773770
11
59.999102
21
30.135619
0
LINE
8
plate 1
10
59.999102
20
30.135619
11
60.213352
21
29.533635
0
LINE
8
plate 1
10
60.213352
20
29.533635
11
60.601195
21
29.009183
0
LINE
8
plate 1
10
60.601195
20
29.009183
11
61.125647
21
28.621340
0
LINE
8
plate 1
10
61.125647
20
28.621340
11
61.727631
21
28.407090
0
LINE
8
plate 1
10
61.727631
20
28.407090
11
62.365782
21
28.374662
0
LINE
8
plate 1
10
62.365782
20
28.374662
11
62.998734
21
28.532283
0
LINE
8
plate 1
10
62.998734
20
28.532283
11
63.557753
21
28.868392
0
LINE
8
plate 1
10
63.557753
20
28.868392
11
63.986063
21
29.342563
0
LINE
8
plate 1
10
63.986063
20
29.342563
11
64.260233
21
29.919728
0
LINE
8
plate 1
10
64.260233
20
29.919728
11
64.356830
21
30.564818
0
LINE
8
plate 1
10
64.356830
20
30.564818
11
64.189365
21
31.406722
0
LINE
8
plate 1
10
64.189365
20
31.406722
11
63.712465
21
32.120453
0
LINE
8
plate 1
10
63.712465
20
32.120453
11
62.998734
21
32.597353
0
LINE
8
plate 1
10
62.998734
20
32.597353
11
62.156830
21
32.764818
0
LINE
8
plate 1
10
62.156830
20
32.764818
11
62.156830
21
32.764818
0
LINE
8
plate 1
10
76.253830
20
23.239816
11
75.608740
21
23.143219
0
LINE
8
plate 1
10
75.608740
20
23.143219
11
75.031575
21
22.869049
0
LINE
8
plate 1
10
75.031575
20
22.869049
11
74.557404
21
22.440739
0
LINE
8
plate 1
10
74.557404
20
22.440739
11
74.221295
21
21.881720
0
LINE
8
plate 1
10
74.221295
20
21.881720
11
74.063674
21
21.248768
0
LINE
8
plate 1
10
74.063674
20
21.248768
11
74.096102
21
20.610617
0
LINE
8
plate 1
10
74.096102
20
20.610617
11
74.310352
21
20.008633
0
LINE
8
plate 1
10
74.310352
20
20.008633
11
74.698195
21
19.484181
0
LINE
8
plate 1
10
74.698195
20
19.484181
11
75.222647
21
19.096338
0
LINE
8
plate 1
10
75.222647
20
19.096338
11
75.824631
21
18.882088
0
LINE
8
plate 1
10
75.824631
20
18.882088
11
76.462782
21
18.849660
0
LINE
8
plate 1
10
76.462782
20
18.849660
11
77.095734
21
19.007281
0
LINE
8
plate 1
10
77.095734
20
19.007281
11
77.654753
21
19.343390
0
LINE
8
plate 1
10
77.654753
20
19.343390
11
78.083063
21
19.817561
0
LINE
8
plate 1
10
78.083063
20
19.817561
11
78.357233
21
20.394726
0
LINE
8
plate 1
10
78.357233
20
20.394726
11
78.453830
21
21.039816
0
LINE
8
plate 1
10
78.453830
20
21.039816
11
78.286365
21
21.881720
0
LINE
8
plate 1
10
78.286365
20
21.881720
11
77.809465
21
22.595451
0
LINE
8
plate 1
10
77.809465
20
22.595451
11
77.095734
21
23.072351
0
LINE
8
plate 1
10
77.095734
20
23.072351
11
76.253830
21
23.239816
0
LINE
8
plate 1
10
76.253830
20
23.239816
11
76.253830
21
23.239816
0
LINE
8
plate 1
10
78.952118
20
73.660626
11
57.765894
21
73.651026
0
LINE
8
plate 1
10
78.953644
20
73.658222
11
79.048044
21
16.488217
0
LINE
8
plate 1
10
57.761692
20
73.648060
11
57.791842
21
28.674427
0
LINE
8
plate 1
10
79.044259
20
16.470600
11
57.807086
21
28.665162
 0 
ENDSEC
 0 
EOF